<svg xmlns="http://www.w3.org/2000/svg" xmlns:xlink="http://www.w3.org/1999/xlink" width="500" zoomAndPan="magnify" viewBox="0 0 375 374.999991" height="500" preserveAspectRatio="xMidYMid meet" version="1.0"><defs><g/><clipPath id="0337ba17c1"><path d="M 3.457031 3.457031 L 371.707031 3.457031 L 371.707031 371.707031 L 3.457031 371.707031 Z M 3.457031 3.457031 " clip-rule="nonzero"/></clipPath></defs><g clip-path="url(#0337ba17c1)"><path fill="#888381" d="M 288.621094 193.058594 C 285.839844 246.402344 241.597656 288.621094 187.75 288.621094 C 131.878906 288.621094 86.375 243.367188 86.375 187.5 C 86.375 161.710938 96.234375 138.199219 111.910156 120.25 L 183.453125 191.039062 L 183.453125 191.289062 L 183.707031 191.289062 L 183.707031 191.542969 L 183.957031 191.542969 L 184.210938 191.796875 L 184.464844 192.046875 L 184.71875 192.046875 L 184.71875 192.300781 L 185.222656 192.300781 L 185.222656 192.554688 L 185.730469 192.554688 L 185.730469 192.808594 L 186.738281 192.808594 L 186.738281 193.058594 Z M 187.5 371.542969 C 173.847656 371.542969 162.722656 360.671875 162.722656 346.765625 C 162.722656 335.136719 170.8125 325.277344 181.683594 322.75 L 181.683594 295.195312 C 183.707031 295.195312 185.730469 295.195312 187.5 295.195312 C 189.519531 295.195312 191.289062 295.195312 193.3125 295.195312 L 193.3125 322.75 C 204.183594 325.277344 212.273438 335.136719 212.273438 346.765625 C 212.273438 360.671875 201.148438 371.542969 187.5 371.542969 Z M 317.695312 57.304688 C 327.554688 67.164062 327.554688 82.835938 317.695312 92.441406 C 309.351562 100.785156 296.710938 102.050781 287.105469 95.980469 L 267.636719 115.703125 C 265.109375 112.667969 262.328125 109.886719 259.546875 107.359375 L 279.015625 87.890625 C 273.199219 78.285156 274.210938 65.644531 282.554688 57.304688 C 292.414062 47.695312 308.085938 47.695312 317.695312 57.304688 Z M 371.542969 187.5 C 371.542969 201.148438 360.671875 212.273438 346.765625 212.273438 C 335.136719 212.273438 325.277344 204.183594 322.75 193.3125 L 295.195312 193.3125 C 295.195312 191.289062 295.195312 189.519531 295.195312 187.5 C 295.195312 185.730469 295.195312 183.707031 295.195312 181.683594 L 322.75 181.683594 C 325.277344 170.8125 335.136719 162.722656 346.765625 162.722656 C 360.671875 162.722656 371.542969 173.847656 371.542969 187.5 Z M 317.695312 317.695312 C 308.085938 327.554688 292.414062 327.554688 282.554688 317.695312 C 274.210938 309.351562 273.199219 296.710938 279.015625 287.105469 L 259.546875 267.636719 C 262.328125 265.109375 265.109375 262.328125 267.636719 259.546875 L 287.105469 279.015625 C 296.710938 273.199219 309.351562 274.210938 317.695312 282.554688 C 327.554688 292.414062 327.554688 308.085938 317.695312 317.695312 Z M 57.304688 317.695312 C 47.695312 308.085938 47.695312 292.414062 57.304688 282.554688 C 65.644531 274.210938 78.285156 273.199219 87.890625 279.015625 L 107.359375 259.546875 C 109.886719 262.328125 112.667969 265.109375 115.703125 267.636719 L 95.980469 287.105469 C 102.050781 296.710938 100.785156 309.351562 92.441406 317.695312 C 82.835938 327.554688 67.164062 327.554688 57.304688 317.695312 Z M 3.457031 187.5 C 3.457031 173.847656 14.578125 162.722656 28.230469 162.722656 C 40.113281 162.722656 49.71875 170.8125 52.5 181.683594 L 80.054688 181.683594 C 79.804688 183.707031 79.804688 185.730469 79.804688 187.5 C 79.804688 189.519531 79.804688 191.289062 80.054688 193.3125 L 52.5 193.3125 C 49.71875 204.183594 40.113281 212.273438 28.230469 212.273438 C 14.578125 212.273438 3.457031 201.148438 3.457031 187.5 Z M 57.304688 57.304688 C 67.164062 47.695312 82.835938 47.695312 92.441406 57.304688 C 100.785156 65.644531 102.050781 78.285156 95.980469 87.890625 L 115.703125 107.359375 C 112.667969 109.886719 109.886719 112.667969 107.359375 115.703125 L 87.890625 95.980469 C 78.285156 102.050781 65.644531 100.785156 57.304688 92.441406 C 47.695312 82.835938 47.695312 67.164062 57.304688 57.304688 Z M 187.5 3.457031 C 201.148438 3.457031 212.273438 14.578125 212.273438 28.230469 C 212.273438 40.113281 204.183594 49.71875 193.3125 52.5 L 193.3125 80.054688 C 191.289062 79.804688 189.519531 79.804688 187.5 79.804688 C 185.730469 79.804688 183.707031 79.804688 181.683594 80.054688 L 181.683594 52.5 C 170.8125 49.71875 162.722656 40.113281 162.722656 28.230469 C 162.722656 14.578125 173.847656 3.457031 187.5 3.457031 Z M 193.058594 86.375 C 244.632812 89.15625 285.839844 130.363281 288.621094 181.9375 L 193.058594 181.9375 Z M 119.746094 112.414062 C 136.429688 97.5 158.171875 87.640625 182.1875 86.375 L 182.1875 174.351562 Z M 119.746094 112.414062 " fill-opacity="1" fill-rule="evenodd"/></g><g fill="#050a30" fill-opacity="1"><g transform="translate(20.270642, 248.699926)"><g><path d="M -0.484375 -2.625 C 0.847656 -2.625 1.910156 -2.925781 2.703125 -3.53125 C 3.492188 -4.144531 4.140625 -4.941406 4.640625 -5.921875 C 5.148438 -6.898438 5.75 -8.367188 6.4375 -10.328125 L 7.234375 -12.5625 L 23.609375 -57.15625 L 25.515625 -57.15625 L 43.234375 -11.921875 C 43.816406 -10.492188 44.320312 -8.941406 44.75 -7.265625 C 45.175781 -5.597656 45.363281 -4.234375 45.3125 -3.171875 L 50.71875 -3.5 L 50.71875 0 L 32.515625 0 L 32.515625 -2.625 C 35.640625 -2.675781 37.203125 -3.945312 37.203125 -6.4375 C 37.203125 -7.445312 36.9375 -8.691406 36.40625 -10.171875 L 33.625 -17.640625 L 12.953125 -17.171875 C 12.160156 -14.992188 11.234375 -12.15625 10.171875 -8.65625 C 9.640625 -6.914062 8.976562 -5.085938 8.1875 -3.171875 L 14.390625 -3.5 L 14.390625 0 L -0.484375 0 Z M 32.515625 -20.59375 L 26.859375 -35.765625 L 23.28125 -45.546875 L 23.125 -45.546875 L 19.796875 -36.5625 L 15.5 -24.484375 L 14.140625 -20.59375 Z M 32.515625 -20.59375 "/></g></g></g><g fill="#050a30" fill-opacity="1"><g transform="translate(70.022947, 248.699926)"><g><path d="M 2.703125 -2.390625 C 4.234375 -2.390625 5.332031 -2.769531 6 -3.53125 C 6.664062 -4.300781 7.0625 -5.28125 7.1875 -6.46875 C 7.320312 -7.664062 7.390625 -9.535156 7.390625 -12.078125 L 7.390625 -49.671875 C 7.390625 -51.691406 7.46875 -53.414062 7.625 -54.84375 L 1.984375 -54.53125 L 1.984375 -57.859375 C 5.160156 -57.859375 7.425781 -58.046875 8.78125 -58.421875 C 10.132812 -58.796875 11.179688 -59.328125 11.921875 -60.015625 L 14.234375 -60.015625 L 14.3125 -8.421875 C 14.3125 -6.359375 14.175781 -4.554688 13.90625 -3.015625 L 18.921875 -3.265625 L 18.921875 0 L 2.703125 0 Z M 2.703125 -2.390625 "/></g></g></g><g fill="#050a30" fill-opacity="1"><g transform="translate(91.64056, 248.699926)"><g><path d="M 2.703125 -2.390625 C 4.234375 -2.390625 5.332031 -2.769531 6 -3.53125 C 6.664062 -4.300781 7.0625 -5.28125 7.1875 -6.46875 C 7.320312 -7.664062 7.390625 -9.535156 7.390625 -12.078125 L 7.390625 -49.671875 C 7.390625 -51.691406 7.46875 -53.414062 7.625 -54.84375 L 1.984375 -54.53125 L 1.984375 -57.859375 C 5.160156 -57.859375 7.425781 -58.046875 8.78125 -58.421875 C 10.132812 -58.796875 11.179688 -59.328125 11.921875 -60.015625 L 14.234375 -60.015625 L 14.3125 -8.421875 C 14.3125 -6.359375 14.175781 -4.554688 13.90625 -3.015625 L 18.921875 -3.265625 L 18.921875 0 L 2.703125 0 Z M 2.703125 -2.390625 "/></g></g></g><g fill="#050a30" fill-opacity="1"><g transform="translate(113.258173, 248.699926)"><g><path d="M 23.203125 1.265625 C 19.546875 1.265625 16.191406 0.40625 13.140625 -1.3125 C 10.097656 -3.03125 7.691406 -5.425781 5.921875 -8.5 C 4.148438 -11.570312 3.265625 -15.046875 3.265625 -18.921875 C 3.265625 -23.046875 4.132812 -26.789062 5.875 -30.15625 C 7.625 -33.53125 10.019531 -36.179688 13.0625 -38.109375 C 16.113281 -40.046875 19.492188 -41.015625 23.203125 -41.015625 C 26.859375 -41.015625 30.222656 -40.125 33.296875 -38.34375 C 36.378906 -36.570312 38.804688 -34.148438 40.578125 -31.078125 C 42.347656 -28.003906 43.234375 -24.585938 43.234375 -20.828125 C 43.234375 -16.796875 42.347656 -13.082031 40.578125 -9.6875 C 38.804688 -6.300781 36.394531 -3.628906 33.34375 -1.671875 C 30.289062 0.285156 26.910156 1.265625 23.203125 1.265625 Z M 23.84375 -1.90625 C 27.707031 -1.90625 30.550781 -3.492188 32.375 -6.671875 C 34.207031 -9.859375 35.125 -13.804688 35.125 -18.515625 C 35.125 -23.867188 34.128906 -28.453125 32.140625 -32.265625 C 30.160156 -36.085938 27.179688 -38 23.203125 -38 C 19.285156 -38 16.332031 -36.378906 14.34375 -33.140625 C 12.351562 -29.910156 11.359375 -25.9375 11.359375 -21.21875 C 11.359375 -17.832031 11.820312 -14.664062 12.75 -11.71875 C 13.675781 -8.78125 15.082031 -6.410156 16.96875 -4.609375 C 18.851562 -2.804688 21.144531 -1.90625 23.84375 -1.90625 Z M 23.84375 -1.90625 "/></g></g></g><g fill="#050a30" fill-opacity="1"><g transform="translate(159.751944, 248.699926)"><g><path d="M 22.890625 1.265625 C 19.285156 1.265625 15.984375 0.445312 12.984375 -1.1875 C 9.992188 -2.832031 7.625 -5.191406 5.875 -8.265625 C 4.132812 -11.335938 3.265625 -14.96875 3.265625 -19.15625 C 3.265625 -22.863281 4.148438 -26.398438 5.921875 -29.765625 C 7.691406 -33.128906 10.15625 -35.84375 13.3125 -37.90625 C 16.46875 -39.976562 20.03125 -41.015625 24 -41.015625 C 26.863281 -41.015625 29.40625 -40.5625 31.625 -39.65625 C 33.851562 -38.757812 35.585938 -37.566406 36.828125 -36.078125 C 38.078125 -34.597656 38.703125 -32.984375 38.703125 -31.234375 C 38.703125 -30.015625 38.359375 -29.007812 37.671875 -28.21875 C 36.984375 -27.425781 36.03125 -27.03125 34.8125 -27.03125 C 33.644531 -27.03125 32.769531 -27.410156 32.1875 -28.171875 C 31.601562 -28.941406 31.3125 -29.75 31.3125 -30.59375 C 31.3125 -31.925781 31.710938 -32.988281 32.515625 -33.78125 C 31.929688 -35.425781 30.800781 -36.550781 29.125 -37.15625 C 27.457031 -37.769531 25.800781 -38.078125 24.15625 -38.078125 C 21.71875 -38.078125 19.53125 -37.410156 17.59375 -36.078125 C 15.664062 -34.753906 14.144531 -32.820312 13.03125 -30.28125 C 11.914062 -27.738281 11.359375 -24.691406 11.359375 -21.140625 C 11.359375 -17.585938 11.925781 -14.429688 13.0625 -11.671875 C 14.207031 -8.921875 15.8125 -6.765625 17.875 -5.203125 C 19.945312 -3.640625 22.332031 -2.859375 25.03125 -2.859375 C 27.414062 -2.859375 29.757812 -3.503906 32.0625 -4.796875 C 34.375 -6.097656 36.191406 -7.734375 37.515625 -9.703125 L 39.578125 -8.109375 C 37.617188 -5.035156 35.085938 -2.703125 31.984375 -1.109375 C 28.890625 0.472656 25.859375 1.265625 22.890625 1.265625 Z M 22.890625 1.265625 "/></g></g></g><g fill="#050a30" fill-opacity="1"><g transform="translate(202.033455, 248.699926)"><g><path d="M 14.625 1.265625 C 10.757812 1.265625 7.804688 0.394531 5.765625 -1.34375 C 3.722656 -3.09375 2.703125 -5.375 2.703125 -8.1875 C 2.703125 -11.257812 3.929688 -13.851562 6.390625 -15.96875 C 8.859375 -18.09375 11.957031 -19.671875 15.6875 -20.703125 C 19.425781 -21.734375 23.175781 -22.222656 26.9375 -22.171875 L 26.9375 -27.109375 C 26.9375 -30.546875 26.429688 -33.234375 25.421875 -35.171875 C 24.421875 -37.109375 22.28125 -38.078125 19 -38.078125 C 17.351562 -38.078125 15.785156 -37.726562 14.296875 -37.03125 C 12.816406 -36.34375 11.734375 -35.3125 11.046875 -33.9375 C 11.734375 -33.195312 12.078125 -32.191406 12.078125 -30.921875 C 12.078125 -30.128906 11.785156 -29.375 11.203125 -28.65625 C 10.617188 -27.9375 9.769531 -27.578125 8.65625 -27.578125 C 7.550781 -27.578125 6.679688 -27.9375 6.046875 -28.65625 C 5.410156 -29.375 5.09375 -30.3125 5.09375 -31.46875 C 5.09375 -33.21875 5.765625 -34.820312 7.109375 -36.28125 C 8.460938 -37.738281 10.34375 -38.890625 12.75 -39.734375 C 15.164062 -40.585938 17.859375 -41.015625 20.828125 -41.015625 C 25.273438 -41.015625 28.554688 -39.832031 30.671875 -37.46875 C 32.796875 -35.113281 33.832031 -31.394531 33.78125 -26.3125 L 33.703125 -8.421875 C 33.703125 -6.722656 33.597656 -4.921875 33.390625 -3.015625 L 39.03125 -3.34375 L 39.03125 0 L 27.65625 0 C 27.5 -0.789062 27.316406 -2.300781 27.109375 -4.53125 C 23.234375 -0.664062 19.070312 1.265625 14.625 1.265625 Z M 16.453125 -3.265625 C 18.460938 -3.265625 20.289062 -3.644531 21.9375 -4.40625 C 23.582031 -5.175781 25.25 -6.359375 26.9375 -7.953125 C 26.882812 -8.742188 26.859375 -10.09375 26.859375 -12 L 26.9375 -19.46875 C 22.59375 -19.3125 18.722656 -18.425781 15.328125 -16.8125 C 11.941406 -15.195312 10.25 -12.71875 10.25 -9.375 C 10.25 -7.414062 10.832031 -5.90625 12 -4.84375 C 13.164062 -3.789062 14.648438 -3.265625 16.453125 -3.265625 Z M 16.453125 -3.265625 "/></g></g></g><g fill="#050a30" fill-opacity="1"><g transform="translate(243.043332, 248.699926)"><g><path d="M 18.4375 1.265625 C 11.175781 1.265625 7.570312 -3.609375 7.625 -13.359375 L 7.796875 -36.40625 L 1.671875 -36.328125 L 1.671875 -39.75 C 4.210938 -39.800781 6.367188 -40.953125 8.140625 -43.203125 C 9.921875 -45.453125 11.234375 -48.007812 12.078125 -50.875 L 14.78125 -50.875 L 14.78125 -39.75 L 28.140625 -39.75 L 28.140625 -36.640625 L 14.78125 -36.484375 C 14.726562 -28.378906 14.6875 -22.757812 14.65625 -19.625 C 14.632812 -16.5 14.625 -14.753906 14.625 -14.390625 C 14.625 -10.628906 15.070312 -7.832031 15.96875 -6 C 16.875 -4.175781 18.441406 -3.265625 20.671875 -3.265625 C 22.046875 -3.265625 23.40625 -3.6875 24.75 -4.53125 C 26.101562 -5.375 27.285156 -6.539062 28.296875 -8.03125 L 30.4375 -6.28125 C 28.375 -3.207031 26.332031 -1.179688 24.3125 -0.203125 C 22.300781 0.773438 20.34375 1.265625 18.4375 1.265625 Z M 18.4375 1.265625 "/></g></g></g><g fill="#050a30" fill-opacity="1"><g transform="translate(273.800746, 248.699926)"><g><path d="M 23.203125 1.265625 C 19.546875 1.265625 16.191406 0.40625 13.140625 -1.3125 C 10.097656 -3.03125 7.691406 -5.425781 5.921875 -8.5 C 4.148438 -11.570312 3.265625 -15.046875 3.265625 -18.921875 C 3.265625 -23.046875 4.132812 -26.789062 5.875 -30.15625 C 7.625 -33.53125 10.019531 -36.179688 13.0625 -38.109375 C 16.113281 -40.046875 19.492188 -41.015625 23.203125 -41.015625 C 26.859375 -41.015625 30.222656 -40.125 33.296875 -38.34375 C 36.378906 -36.570312 38.804688 -34.148438 40.578125 -31.078125 C 42.347656 -28.003906 43.234375 -24.585938 43.234375 -20.828125 C 43.234375 -16.796875 42.347656 -13.082031 40.578125 -9.6875 C 38.804688 -6.300781 36.394531 -3.628906 33.34375 -1.671875 C 30.289062 0.285156 26.910156 1.265625 23.203125 1.265625 Z M 23.84375 -1.90625 C 27.707031 -1.90625 30.550781 -3.492188 32.375 -6.671875 C 34.207031 -9.859375 35.125 -13.804688 35.125 -18.515625 C 35.125 -23.867188 34.128906 -28.453125 32.140625 -32.265625 C 30.160156 -36.085938 27.179688 -38 23.203125 -38 C 19.285156 -38 16.332031 -36.378906 14.34375 -33.140625 C 12.351562 -29.910156 11.359375 -25.9375 11.359375 -21.21875 C 11.359375 -17.832031 11.820312 -14.664062 12.75 -11.71875 C 13.675781 -8.78125 15.082031 -6.410156 16.96875 -4.609375 C 18.851562 -2.804688 21.144531 -1.90625 23.84375 -1.90625 Z M 23.84375 -1.90625 "/></g></g></g><g fill="#050a30" fill-opacity="1"><g transform="translate(320.294517, 248.699926)"><g><path d="M 3.5 -2.390625 C 5.03125 -2.390625 6.128906 -2.769531 6.796875 -3.53125 C 7.460938 -4.300781 7.859375 -5.28125 7.984375 -6.46875 C 8.117188 -7.664062 8.1875 -9.535156 8.1875 -12.078125 L 8.1875 -30.203125 C 8.1875 -32.429688 8.289062 -34.15625 8.5 -35.375 L 2.859375 -35.125 L 2.859375 -38.390625 L 5.328125 -38.390625 C 7.335938 -38.390625 8.789062 -38.5625 9.6875 -38.90625 C 10.59375 -39.25 11.441406 -39.789062 12.234375 -40.53125 L 14.546875 -40.53125 C 14.753906 -38.46875 14.882812 -35.847656 14.9375 -32.671875 C 16.269531 -34.835938 18.164062 -36.769531 20.625 -38.46875 C 23.09375 -40.164062 25.648438 -41.015625 28.296875 -41.015625 C 29.890625 -41.015625 31.210938 -40.585938 32.265625 -39.734375 C 33.328125 -38.890625 33.859375 -37.644531 33.859375 -36 C 33.859375 -35.15625 33.523438 -34.304688 32.859375 -33.453125 C 32.203125 -32.609375 31.265625 -32.1875 30.046875 -32.1875 C 28.878906 -32.1875 27.925781 -32.625 27.1875 -33.5 C 26.445312 -34.375 26.15625 -35.421875 26.3125 -36.640625 C 24.289062 -36.691406 22.257812 -35.921875 20.21875 -34.328125 C 18.1875 -32.742188 16.453125 -30.628906 15.015625 -27.984375 L 15.109375 -8.421875 C 15.109375 -6.035156 15 -4.234375 14.78125 -3.015625 L 19.796875 -3.265625 L 19.796875 0 L 3.5 0 Z M 3.5 -2.390625 "/></g></g></g><g fill="#050a30" fill-opacity="1"><g transform="translate(101.818738, 183.302194)"><g><path d="M 16.53125 -2.625 C 18.8125 -2.726562 20.28125 -3.363281 20.9375 -4.53125 C 21.601562 -5.695312 21.9375 -7.5 21.9375 -9.9375 L 21.9375 -12.40625 L 22.015625 -52.703125 L 13.828125 -52.625 C 10.546875 -52.625 8.203125 -51.519531 6.796875 -49.3125 C 5.390625 -47.113281 4.6875 -43.632812 4.6875 -38.875 L 1.75 -38.875 L 2.21875 -55.640625 L 48.5625 -55.640625 L 49.046875 -38.875 L 46.015625 -38.875 C 45.960938 -42.207031 45.628906 -44.867188 45.015625 -46.859375 C 44.410156 -48.847656 43.378906 -50.332031 41.921875 -51.3125 C 40.472656 -52.289062 38.394531 -52.78125 35.6875 -52.78125 L 28.9375 -52.78125 L 28.859375 -9.453125 C 28.859375 -6.648438 28.773438 -4.554688 28.609375 -3.171875 L 35.21875 -3.5 L 35.21875 0 L 16.53125 0 Z M 16.53125 -2.625 "/></g></g></g><g fill="#050a30" fill-opacity="1"><g transform="translate(152.683717, 183.302194)"><g><path d="M 14.625 1.265625 C 10.757812 1.265625 7.804688 0.394531 5.765625 -1.34375 C 3.722656 -3.09375 2.703125 -5.375 2.703125 -8.1875 C 2.703125 -11.257812 3.929688 -13.851562 6.390625 -15.96875 C 8.859375 -18.09375 11.957031 -19.671875 15.6875 -20.703125 C 19.425781 -21.734375 23.175781 -22.222656 26.9375 -22.171875 L 26.9375 -27.109375 C 26.9375 -30.546875 26.429688 -33.234375 25.421875 -35.171875 C 24.421875 -37.109375 22.28125 -38.078125 19 -38.078125 C 17.351562 -38.078125 15.785156 -37.726562 14.296875 -37.03125 C 12.816406 -36.34375 11.734375 -35.3125 11.046875 -33.9375 C 11.734375 -33.195312 12.078125 -32.191406 12.078125 -30.921875 C 12.078125 -30.128906 11.785156 -29.375 11.203125 -28.65625 C 10.617188 -27.9375 9.769531 -27.578125 8.65625 -27.578125 C 7.550781 -27.578125 6.679688 -27.9375 6.046875 -28.65625 C 5.410156 -29.375 5.09375 -30.3125 5.09375 -31.46875 C 5.09375 -33.21875 5.765625 -34.820312 7.109375 -36.28125 C 8.460938 -37.738281 10.34375 -38.890625 12.75 -39.734375 C 15.164062 -40.585938 17.859375 -41.015625 20.828125 -41.015625 C 25.273438 -41.015625 28.554688 -39.832031 30.671875 -37.46875 C 32.796875 -35.113281 33.832031 -31.394531 33.78125 -26.3125 L 33.703125 -8.421875 C 33.703125 -6.722656 33.597656 -4.921875 33.390625 -3.015625 L 39.03125 -3.34375 L 39.03125 0 L 27.65625 0 C 27.5 -0.789062 27.316406 -2.300781 27.109375 -4.53125 C 23.234375 -0.664062 19.070312 1.265625 14.625 1.265625 Z M 16.453125 -3.265625 C 18.460938 -3.265625 20.289062 -3.644531 21.9375 -4.40625 C 23.582031 -5.175781 25.25 -6.359375 26.9375 -7.953125 C 26.882812 -8.742188 26.859375 -10.09375 26.859375 -12 L 26.9375 -19.46875 C 22.59375 -19.3125 18.722656 -18.425781 15.328125 -16.8125 C 11.941406 -15.195312 10.25 -12.71875 10.25 -9.375 C 10.25 -7.414062 10.832031 -5.90625 12 -4.84375 C 13.164062 -3.789062 14.648438 -3.265625 16.453125 -3.265625 Z M 16.453125 -3.265625 "/></g></g></g><g fill="#050a30" fill-opacity="1"><g transform="translate(193.693606, 183.302194)"><g><path d="M 19.796875 1.265625 C 17.304688 1.265625 15.023438 0.929688 12.953125 0.265625 C 10.890625 -0.390625 9.113281 -1.21875 7.625 -2.21875 L 7.953125 0.5625 L 4.609375 0.5625 L 4.140625 -13.109375 L 6.59375 -13.109375 C 6.695312 -10.941406 7.289062 -9.007812 8.375 -7.3125 C 9.46875 -5.613281 10.898438 -4.273438 12.671875 -3.296875 C 14.453125 -2.316406 16.347656 -1.828125 18.359375 -1.828125 C 20.640625 -1.828125 22.664062 -2.367188 24.4375 -3.453125 C 26.21875 -4.546875 27.109375 -6.097656 27.109375 -8.109375 C 27.109375 -9.585938 26.671875 -10.832031 25.796875 -11.84375 C 24.921875 -12.851562 23.832031 -13.6875 22.53125 -14.34375 C 21.238281 -15.007812 19.425781 -15.789062 17.09375 -16.6875 C 14.28125 -17.75 12.023438 -18.742188 10.328125 -19.671875 C 8.640625 -20.597656 7.1875 -21.851562 5.96875 -23.4375 C 4.75 -25.03125 4.140625 -27.046875 4.140625 -29.484375 C 4.140625 -31.234375 4.5625 -32.984375 5.40625 -34.734375 C 6.25 -36.484375 7.675781 -37.96875 9.6875 -39.1875 C 11.707031 -40.40625 14.382812 -41.015625 17.71875 -41.015625 C 19.363281 -41.015625 21.046875 -40.75 22.765625 -40.21875 C 24.492188 -39.6875 26.097656 -38.8125 27.578125 -37.59375 L 27.421875 -40.609375 L 30.765625 -40.609375 L 30.765625 -26.703125 L 28.21875 -26.703125 C 28.0625 -29.773438 27.117188 -32.4375 25.390625 -34.6875 C 23.671875 -36.945312 21.25 -38.078125 18.125 -38.078125 C 15.738281 -38.078125 13.84375 -37.476562 12.4375 -36.28125 C 11.03125 -35.09375 10.328125 -33.675781 10.328125 -32.03125 C 10.328125 -30.5 10.789062 -29.203125 11.71875 -28.140625 C 12.644531 -27.078125 13.796875 -26.175781 15.171875 -25.4375 C 16.554688 -24.695312 18.414062 -23.875 20.75 -22.96875 C 23.5 -21.851562 25.722656 -20.816406 27.421875 -19.859375 C 29.117188 -18.910156 30.5625 -17.65625 31.75 -16.09375 C 32.945312 -14.53125 33.546875 -12.632812 33.546875 -10.40625 C 33.546875 -7.863281 32.894531 -5.71875 31.59375 -3.96875 C 30.289062 -2.21875 28.59375 -0.90625 26.5 -0.03125 C 24.414062 0.832031 22.179688 1.265625 19.796875 1.265625 Z M 19.796875 1.265625 "/></g></g></g><g fill="#050a30" fill-opacity="1"><g transform="translate(230.491233, 183.302194)"><g><path d="M 2.78125 -2.390625 C 4.320312 -2.390625 5.421875 -2.769531 6.078125 -3.53125 C 6.742188 -4.300781 7.128906 -5.269531 7.234375 -6.4375 C 7.335938 -7.601562 7.390625 -9.484375 7.390625 -12.078125 C 7.390625 -12.609375 7.398438 -15.492188 7.421875 -20.734375 C 7.453125 -25.984375 7.46875 -35.628906 7.46875 -49.671875 C 7.46875 -51.691406 7.546875 -53.414062 7.703125 -54.84375 L 2.0625 -54.53125 L 2.0625 -57.859375 C 5.1875 -57.859375 7.425781 -58.046875 8.78125 -58.421875 C 10.132812 -58.796875 11.179688 -59.328125 11.921875 -60.015625 L 14.234375 -60.015625 L 14.234375 -22.421875 L 17.40625 -22.421875 L 27.109375 -32.59375 C 29.117188 -34.707031 30.679688 -36.109375 31.796875 -36.796875 L 26.390625 -36.5625 L 26.390625 -39.75 L 40.859375 -39.75 L 40.859375 -37.359375 C 38.523438 -37.085938 36.40625 -36.238281 34.5 -34.8125 C 32.59375 -33.382812 30.472656 -31.453125 28.140625 -29.015625 L 21.9375 -22.5 C 22.894531 -22.070312 23.726562 -21.523438 24.4375 -20.859375 C 25.15625 -20.203125 25.960938 -19.316406 26.859375 -18.203125 L 32.515625 -10.96875 C 32.617188 -10.863281 33.210938 -10.054688 34.296875 -8.546875 C 35.378906 -7.035156 36.675781 -5.628906 38.1875 -4.328125 C 39.695312 -3.035156 41.007812 -2.390625 42.125 -2.390625 L 42.125 0 L 34.890625 0 C 33.617188 0 32.425781 -0.554688 31.3125 -1.671875 C 30.195312 -2.785156 28.582031 -4.71875 26.46875 -7.46875 L 23.375 -11.84375 C 22.207031 -13.488281 21.101562 -15.007812 20.0625 -16.40625 C 19.03125 -17.8125 18.171875 -18.832031 17.484375 -19.46875 L 14.234375 -19.3125 L 14.234375 -8.421875 C 14.234375 -6.035156 14.125 -4.234375 13.90625 -3.015625 L 19 -3.265625 L 19 0 L 2.78125 0 Z M 2.78125 -2.390625 "/></g></g></g></svg>